<?xml version="1.0" encoding="iso-8859-1"?>
<!-- Generator: Adobe Illustrator 19.0.0, SVG Export Plug-In . SVG Version: 6.00 Build 0)  -->
<svg version="1.1" id="Capa_1" xmlns="http://www.w3.org/2000/svg" xmlns:xlink="http://www.w3.org/1999/xlink" x="0px" y="0px"
	 viewBox="0 0 480 480" style="enable-background:new 0 0 480 480;" xml:space="preserve">
<g>
	<path style="fill:#BF515A;" d="M151.579,189.474h6.088c-1.533-10.712-10.741-18.947-21.877-18.947s-20.344,8.235-21.877,18.947H120
		H151.579z"/>
	<path style="fill:#BF515A;" d="M221.053,189.474h6.088c-1.533-10.712-10.741-18.947-21.877-18.947
		c-11.136,0-20.344,8.235-21.877,18.947h6.088H221.053z"/>
	<path style="fill:#BF515A;" d="M290.526,189.474h6.088c-1.533-10.712-10.741-18.947-21.877-18.947s-20.344,8.235-21.877,18.947
		h6.088H290.526z"/>
	<path style="fill:#BF515A;" d="M360,189.474h6.088c-1.533-10.712-10.741-18.947-21.877-18.947s-20.344,8.235-21.877,18.947h6.088
		H360z"/>
	<polygon style="fill:#BF515A;" points="366.316,423.158 366.316,429.474 366.316,454.737 391.579,454.737 391.579,410.526 
		366.316,410.526 	"/>
	<polygon style="fill:#BF515A;" points="296.842,429.474 296.842,454.737 322.105,454.737 322.105,429.474 322.105,423.158 
		322.105,410.526 296.842,410.526 296.842,423.158 	"/>
	<polygon style="fill:#BF515A;" points="157.895,429.474 157.895,454.737 183.158,454.737 183.158,429.474 183.158,423.158 
		183.158,410.526 157.895,410.526 157.895,423.158 	"/>
	<polygon style="fill:#BF515A;" points="227.368,429.474 227.368,454.737 252.631,454.737 252.631,429.474 252.631,423.158 
		252.631,410.526 227.368,410.526 227.368,423.158 	"/>
	<polygon style="fill:#BF515A;" points="113.684,429.474 113.684,423.158 113.684,410.526 88.421,410.526 88.421,454.737 
		113.684,454.737 	"/>
	<path style="fill:#BF515A;" d="M151.579,88.421h6.088c-1.533-10.712-10.741-18.948-21.877-18.948s-20.344,8.236-21.877,18.948H120
		H151.579z"/>
	<path style="fill:#BF515A;" d="M221.053,88.421h6.088c-1.533-10.712-10.741-18.948-21.877-18.948
		c-11.136,0-20.344,8.236-21.877,18.948h6.088H221.053z"/>
	<path style="fill:#BF515A;" d="M290.526,88.421h6.088c-1.533-10.712-10.741-18.948-21.877-18.948s-20.344,8.236-21.877,18.948
		h6.088H290.526z"/>
	<path style="fill:#BF515A;" d="M360,88.421h6.088c-1.533-10.712-10.741-18.948-21.877-18.948s-20.344,8.236-21.877,18.948h6.088
		H360z"/>
	<rect x="88.421" y="454.737" style="fill:#9C4851;" width="25.263" height="25.263"/>
	<rect x="227.368" y="454.737" style="fill:#9C4851;" width="25.263" height="25.263"/>
	<rect x="157.895" y="454.737" style="fill:#9C4851;" width="25.263" height="25.263"/>
	<rect x="366.316" y="454.737" style="fill:#9C4851;" width="25.263" height="25.263"/>
	<rect x="296.842" y="454.737" style="fill:#9C4851;" width="25.263" height="25.263"/>
	<rect x="107.368" y="18.947" style="fill:#BF515A;" width="265.263" height="18.947"/>
	<path style="fill:#E17277;" d="M372.632,0v18.947v18.947H107.368V18.947V0H88.421v37.895v372.632h25.263v-12.632v-6.316v-12.631
		v-6.316v-37.895v-6.316v-25.263v-6.316V284.21v-6.316v-31.579V240v-25.263v-6.316V195.79v-6.316h0.228
		c1.533-10.712,10.741-18.947,21.877-18.947s20.344,8.235,21.877,18.947h0.228v6.316v12.632v6.316V240v6.316v31.579v6.316v12.632
		v6.316v25.263v6.316v37.895v6.316v12.631v6.316v12.632h25.263v-12.632v-6.316v-12.631v-6.316v-37.895v-6.316v-25.263v-6.316V284.21
		v-6.316v-31.579V240v-25.263v-6.316V195.79v-6.316h0.228c1.533-10.712,10.741-18.947,21.877-18.947
		c11.136,0,20.344,8.235,21.877,18.947h0.228v6.316v12.632v6.316V240v6.316v31.579v6.316v12.632v6.316v25.263v6.316v37.895v6.316
		v12.631v6.316v12.632h25.263v-12.632v-6.316v-12.631v-6.316v-37.895v-6.316v-25.263v-6.316V284.21v-6.316v-31.579V240v-25.263
		v-6.316V195.79v-6.316h0.228c1.533-10.712,10.741-18.947,21.877-18.947s20.344,8.235,21.877,18.947h0.228v6.316v12.632v6.316V240
		v6.316v31.579v6.316v12.632v6.316v25.263v6.316v37.895v6.316v12.631v6.316v12.632h25.263v-12.632v-6.316v-12.631v-6.316v-37.895
		v-6.316v-25.263v-6.316V284.21v-6.316v-31.579V240v-25.263v-6.316V195.79v-6.316h0.228c1.533-10.712,10.741-18.947,21.877-18.947
		s20.344,8.235,21.877,18.947h0.228v6.316v12.632v6.316V240v6.316v31.579v6.316v12.632v6.316v25.263v6.316v37.895v6.316v12.631
		v6.316v12.632h25.263V37.895V0H372.632z M157.895,94.737v12.632v6.316v25.263v6.316h-6.316H120h-6.316v-6.316v-25.263v-6.316
		V94.737v-6.316h0.228c1.533-10.712,10.741-18.948,21.877-18.948s20.344,8.236,21.877,18.948h0.228V94.737z M227.368,94.737v12.632
		v6.316v25.263v6.316h-6.316h-31.579h-6.316v-6.316v-25.263v-6.316V94.737v-6.316h0.228c1.533-10.712,10.741-18.948,21.877-18.948
		c11.136,0,20.344,8.236,21.877,18.948h0.228V94.737z M296.842,94.737v12.632v6.316v25.263v6.316h-6.316h-31.579h-6.316v-6.316
		v-25.263v-6.316V94.737v-6.316h0.228c1.533-10.712,10.741-18.948,21.877-18.948s20.344,8.236,21.877,18.948h0.228V94.737z
		 M366.316,94.737v12.632v6.316v25.263v6.316H360h-31.579h-6.316v-6.316v-25.263v-6.316V94.737v-6.316h0.228
		c1.533-10.712,10.741-18.948,21.877-18.948s20.344,8.236,21.877,18.948h0.228V94.737z"/>
	<polygon style="fill:#BF515A;" points="151.579,277.895 157.895,277.895 157.895,246.316 151.579,246.316 120,246.316 
		113.684,246.316 113.684,277.895 120,277.895 	"/>
	<polygon style="fill:#BF515A;" points="221.053,277.895 227.368,277.895 227.368,246.316 221.053,246.316 189.474,246.316 
		183.158,246.316 183.158,277.895 189.474,277.895 	"/>
	<polygon style="fill:#BF515A;" points="290.526,277.895 296.842,277.895 296.842,246.316 290.526,246.316 258.947,246.316 
		252.631,246.316 252.631,277.895 258.947,277.895 	"/>
	<polygon style="fill:#BF515A;" points="360,277.895 366.316,277.895 366.316,246.316 360,246.316 328.421,246.316 322.105,246.316 
		322.105,277.895 328.421,277.895 	"/>
	<polygon style="fill:#BF515A;" points="151.579,372.632 157.895,372.632 157.895,334.737 151.579,334.737 120,334.737 
		113.684,334.737 113.684,372.632 120,372.632 	"/>
	<polygon style="fill:#BF515A;" points="221.053,372.632 227.368,372.632 227.368,334.737 221.053,334.737 189.474,334.737 
		183.158,334.737 183.158,372.632 189.474,372.632 	"/>
	<polygon style="fill:#BF515A;" points="290.526,372.632 296.842,372.632 296.842,334.737 290.526,334.737 258.947,334.737 
		252.631,334.737 252.631,372.632 258.947,372.632 	"/>
	<polygon style="fill:#BF515A;" points="360,372.632 366.316,372.632 366.316,334.737 360,334.737 328.421,334.737 322.105,334.737 
		322.105,372.632 328.421,372.632 	"/>
	<path style="fill:#695A69;" d="M366.316,429.474v-6.316v-12.632v-12.632v-6.316v-12.631v-6.316H360h-31.579h-6.316v6.316v12.631
		v6.316v12.632v12.632v6.316v25.263V480h44.21v-25.263V429.474z M328.421,378.947H360v12.631h-31.579V378.947z M328.421,397.895H360
		v25.263h-6.316h-25.263V397.895z"/>
	<path style="fill:#695A69;" d="M296.842,429.474v-6.316v-12.632v-12.632v-6.316v-12.631v-6.316h-6.316h-31.579h-6.316v6.316v12.631
		v6.316v12.632v12.632v6.316v25.263V480h44.211v-25.263V429.474z M258.947,378.947h31.579v12.631h-31.579V378.947z M258.947,397.895
		h31.579v25.263h-6.316h-25.263V397.895z"/>
	<path style="fill:#695A69;" d="M227.368,429.474v-6.316v-12.632v-12.632v-6.316v-12.631v-6.316h-6.316h-31.579h-6.316v6.316v12.631
		v6.316v12.632v12.632v6.316v25.263V480h44.21v-25.263V429.474z M189.474,378.947h31.579v12.631h-31.579V378.947z M189.474,397.895
		h31.579v25.263h-6.316h-25.263V397.895z"/>
	<path style="fill:#695A69;" d="M157.895,429.474v-6.316v-12.632v-12.632v-6.316v-12.631v-6.316h-6.316H120h-6.316v6.316v12.631
		v6.316v12.632v12.632v6.316v25.263V480h44.21v-25.263V429.474z M120,378.947h31.579v12.631H120V378.947z M120,397.895h31.579
		v25.263h-6.316H120V397.895z"/>
	<polygon style="fill:#95FFFF;" points="120,138.947 145.263,138.947 120,113.684 	"/>
	<polygon style="fill:#80D7F0;" points="120,113.684 145.263,138.947 151.579,138.947 151.579,113.684 	"/>
	<rect x="120" y="94.737" style="fill:#6EB1E2;" width="31.579" height="12.632"/>
	<path style="fill:#695A69;" d="M151.579,88.421H120h-6.088h-0.228v6.316v12.632v6.316v25.263v6.316H120h31.579h6.316v-6.316
		v-25.263v-6.316V94.737v-6.316h-0.228H151.579z M151.579,138.947h-6.316H120v-25.263h31.579V138.947z M151.579,107.368H120V94.737
		h31.579V107.368z"/>
	<polygon style="fill:#95FFFF;" points="189.474,138.947 214.737,138.947 189.474,113.684 	"/>
	<polygon style="fill:#80D7F0;" points="189.474,113.684 214.737,138.947 221.053,138.947 221.053,113.684 	"/>
	<rect x="189.474" y="94.737" style="fill:#6EB1E2;" width="31.579" height="12.632"/>
	<path style="fill:#695A69;" d="M221.053,88.421h-31.579h-6.088h-0.228v6.316v12.632v6.316v25.263v6.316h6.316h31.579h6.316v-6.316
		v-25.263v-6.316V94.737v-6.316h-0.228H221.053z M221.053,138.947h-6.316h-25.263v-25.263h31.579V138.947z M221.053,107.368h-31.579
		V94.737h31.579V107.368z"/>
	<polygon style="fill:#95FFFF;" points="258.947,138.947 284.211,138.947 258.947,113.684 	"/>
	<polygon style="fill:#80D7F0;" points="258.947,113.684 284.211,138.947 290.526,138.947 290.526,113.684 	"/>
	<rect x="258.947" y="94.737" style="fill:#6EB1E2;" width="31.579" height="12.632"/>
	<path style="fill:#695A69;" d="M290.526,88.421h-31.579h-6.088h-0.228v6.316v12.632v6.316v25.263v6.316h6.316h31.579h6.316v-6.316
		v-25.263v-6.316V94.737v-6.316h-0.228H290.526z M290.526,138.947h-6.316h-25.263v-25.263h31.579V138.947z M290.526,107.368h-31.579
		V94.737h31.579V107.368z"/>
	<polygon style="fill:#95FFFF;" points="328.421,138.947 353.684,138.947 328.421,113.684 	"/>
	<polygon style="fill:#80D7F0;" points="328.421,113.684 353.684,138.947 360,138.947 360,113.684 	"/>
	<rect x="328.421" y="94.737" style="fill:#6EB1E2;" width="31.579" height="12.632"/>
	<path style="fill:#695A69;" d="M360,88.421h-31.579h-6.088h-0.228v6.316v12.632v6.316v25.263v6.316h6.316H360h6.316v-6.316v-25.263
		v-6.316V94.737v-6.316h-0.228H360z M360,138.947h-6.316h-25.263v-25.263H360V138.947z M360,107.368h-31.579V94.737H360V107.368z"/>
	<polygon style="fill:#95FFFF;" points="120,240 145.263,240 120,214.737 	"/>
	<polygon style="fill:#80D7F0;" points="120,214.737 145.263,240 151.579,240 151.579,214.737 	"/>
	<rect x="120" y="195.79" style="fill:#6EB1E2;" width="31.579" height="12.632"/>
	<path style="fill:#695A69;" d="M151.579,246.316h6.316V240v-25.263v-6.316V195.79v-6.316h-0.228h-6.088H120h-6.088h-0.228v6.316
		v12.632v6.316V240v6.316H120H151.579z M151.579,240h-6.316H120v-25.263h31.579V240z M120,195.79h31.579v12.632H120V195.79z"/>
	<polygon style="fill:#95FFFF;" points="189.474,240 214.737,240 189.474,214.737 	"/>
	<polygon style="fill:#80D7F0;" points="189.474,214.737 214.737,240 221.053,240 221.053,214.737 	"/>
	<rect x="189.474" y="195.79" style="fill:#6EB1E2;" width="31.579" height="12.632"/>
	<path style="fill:#695A69;" d="M221.053,246.316h6.316V240v-25.263v-6.316V195.79v-6.316h-0.228h-6.088h-31.579h-6.088h-0.228
		v6.316v12.632v6.316V240v6.316h6.316H221.053z M221.053,240h-6.316h-25.263v-25.263h31.579V240z M189.474,195.79h31.579v12.632
		h-31.579V195.79z"/>
	<polygon style="fill:#95FFFF;" points="258.947,240 284.211,240 258.947,214.737 	"/>
	<polygon style="fill:#80D7F0;" points="258.947,214.737 284.211,240 290.526,240 290.526,214.737 	"/>
	<rect x="258.947" y="195.79" style="fill:#6EB1E2;" width="31.579" height="12.632"/>
	<path style="fill:#695A69;" d="M290.526,246.316h6.316V240v-25.263v-6.316V195.79v-6.316h-0.228h-6.088h-31.579h-6.088h-0.228
		v6.316v12.632v6.316V240v6.316h6.316H290.526z M290.526,240h-6.316h-25.263v-25.263h31.579V240z M258.947,195.79h31.579v12.632
		h-31.579V195.79z"/>
	<polygon style="fill:#95FFFF;" points="328.421,240 353.684,240 328.421,214.737 	"/>
	<polygon style="fill:#80D7F0;" points="328.421,214.737 353.684,240 360,240 360,214.737 	"/>
	<rect x="328.421" y="195.79" style="fill:#6EB1E2;" width="31.579" height="12.632"/>
	<path style="fill:#695A69;" d="M360,246.316h6.316V240v-25.263v-6.316V195.79v-6.316h-0.228H360h-31.579h-6.088h-0.228v6.316
		v12.632v6.316V240v6.316h6.316H360z M360,240h-6.316h-25.263v-25.263H360V240z M328.421,195.79H360v12.632h-31.579V195.79z"/>
	<polygon style="fill:#95FFFF;" points="120,303.158 120,328.421 145.263,328.421 	"/>
	<polygon style="fill:#80D7F0;" points="151.579,328.421 151.579,303.158 120,303.158 145.263,328.421 	"/>
	<rect x="120" y="284.21" style="fill:#6EB1E2;" width="31.579" height="12.632"/>
	<path style="fill:#695A69;" d="M151.579,334.737h6.316v-6.316v-25.263v-6.316V284.21v-6.316h-6.316H120h-6.316v6.316v12.632v6.316
		v25.263v6.316H120H151.579z M120,284.21h31.579v12.632H120V284.21z M120,303.158h31.579v25.263h-6.316H120V303.158z"/>
	<polygon style="fill:#95FFFF;" points="189.474,303.158 189.474,328.421 214.737,328.421 	"/>
	<polygon style="fill:#80D7F0;" points="221.053,328.421 221.053,303.158 189.474,303.158 214.737,328.421 	"/>
	<rect x="189.474" y="284.21" style="fill:#6EB1E2;" width="31.579" height="12.632"/>
	<path style="fill:#695A69;" d="M221.053,334.737h6.316v-6.316v-25.263v-6.316V284.21v-6.316h-6.316h-31.579h-6.316v6.316v12.632
		v6.316v25.263v6.316h6.316H221.053z M189.474,284.21h31.579v12.632h-31.579V284.21z M189.474,303.158h31.579v25.263h-6.316h-25.263
		V303.158z"/>
	<polygon style="fill:#95FFFF;" points="258.947,303.158 258.947,328.421 284.211,328.421 	"/>
	<polygon style="fill:#80D7F0;" points="290.526,328.421 290.526,303.158 258.947,303.158 284.211,328.421 	"/>
	<rect x="258.947" y="284.21" style="fill:#6EB1E2;" width="31.579" height="12.632"/>
	<path style="fill:#695A69;" d="M290.526,334.737h6.316v-6.316v-25.263v-6.316V284.21v-6.316h-6.316h-31.579h-6.316v6.316v12.632
		v6.316v25.263v6.316h6.316H290.526z M258.947,284.21h31.579v12.632h-31.579V284.21z M258.947,303.158h31.579v25.263h-6.316h-25.263
		V303.158z"/>
	<polygon style="fill:#95FFFF;" points="328.421,303.158 328.421,328.421 353.684,328.421 	"/>
	<polygon style="fill:#80D7F0;" points="360,328.421 360,303.158 328.421,303.158 353.684,328.421 	"/>
	<rect x="328.421" y="284.21" style="fill:#6EB1E2;" width="31.579" height="12.632"/>
	<path style="fill:#695A69;" d="M360,334.737h6.316v-6.316v-25.263v-6.316V284.21v-6.316H360h-31.579h-6.316v6.316v12.632v6.316
		v25.263v6.316h6.316H360z M328.421,284.21H360v12.632h-31.579V284.21z M328.421,303.158H360v25.263h-6.316h-25.263V303.158z"/>
	<polygon style="fill:#95FFFF;" points="145.263,423.158 120,397.895 120,423.158 	"/>
	<polygon style="fill:#80D7F0;" points="145.263,423.158 151.579,423.158 151.579,397.895 120,397.895 	"/>
	<rect x="120" y="378.947" style="fill:#6EB1E2;" width="31.579" height="12.631"/>
	<polygon style="fill:#95FFFF;" points="214.737,423.158 189.474,397.895 189.474,423.158 	"/>
	<polygon style="fill:#80D7F0;" points="214.737,423.158 221.053,423.158 221.053,397.895 189.474,397.895 	"/>
	<rect x="189.474" y="378.947" style="fill:#6EB1E2;" width="31.579" height="12.631"/>
	<polygon style="fill:#95FFFF;" points="284.211,423.158 258.947,397.895 258.947,423.158 	"/>
	<polygon style="fill:#80D7F0;" points="284.211,423.158 290.526,423.158 290.526,397.895 258.947,397.895 	"/>
	<rect x="258.947" y="378.947" style="fill:#6EB1E2;" width="31.579" height="12.631"/>
	<polygon style="fill:#95FFFF;" points="353.684,423.158 328.421,397.895 328.421,423.158 	"/>
	<polygon style="fill:#80D7F0;" points="353.684,423.158 360,423.158 360,397.895 328.421,397.895 	"/>
	<rect x="328.421" y="378.947" style="fill:#6EB1E2;" width="31.579" height="12.631"/>
</g>
<g>
</g>
<g>
</g>
<g>
</g>
<g>
</g>
<g>
</g>
<g>
</g>
<g>
</g>
<g>
</g>
<g>
</g>
<g>
</g>
<g>
</g>
<g>
</g>
<g>
</g>
<g>
</g>
<g>
</g>
</svg>
