<svg height="464pt" viewBox="0 0 464 464" width="464pt" xmlns="http://www.w3.org/2000/svg"><path d="m392 464h-360c-17.671875 0-32-14.328125-32-32v-280h392zm0 0" fill="#348fd9"/><path d="m64 416v-264h-16v248h-16c-17.671875 0-32 14.328125-32 32 .0234375 3.867188.753906 7.699219 2.160156 11.304688 4.902344-16.671876 20.472656-27.90625 37.839844-27.304688zm0 0" fill="#3086cd"/><path d="m392 168-296 296h296zm0 0" fill="#3086cd"/><path d="m48 400h-16c-17.671875 0-32 14.328125-32 32v-312c0-17.671875 14.328125-32 32-32h16zm0 0" fill="#f35244"/><g fill="#4db7e5"><path d="m80 192h96v64h-96zm0 0"/><path d="m80 336h96v64h-96zm0 0"/><path d="m256 192h96v64h-96zm0 0"/><path d="m256 336h96v64h-96zm0 0"/></g><path d="m176 216h80v16h-80zm0 0" fill="#48add9"/><path d="m296 256h16v80h-16zm0 0" fill="#48add9"/><path d="m176 360h80v16h-80zm0 0" fill="#48add9"/><path d="m464 152v-48h-35.121094c-2.277344-8.664062-5.722656-16.980469-10.238281-24.71875l24.878906-24.800781-34-34-24.800781 24.878906c-7.738281-4.515625-16.054688-7.960937-24.71875-10.238281v-35.121094h-48v35.121094c-8.664062 2.277344-16.980469 5.722656-24.71875 10.238281l-24.800781-24.878906-34 34 24.878906 24.800781c-4.515625 7.738281-7.960937 16.054688-10.238281 24.71875h-35.121094v48h35.121094c2.277344 8.664062 5.722656 16.980469 10.238281 24.71875l-24.878906 24.800781 22.558593 22.480469 11.441407 11.441406 24.800781-24.800781c7.738281 4.515625 16.054688 7.960937 24.71875 10.238281v35.121094h48v-35.121094c8.664062-2.277344 16.980469-5.722656 24.71875-10.238281l24.800781 24.800781 34-33.921875-24.878906-24.800781c4.515625-7.738281 7.960937-16.054688 10.238281-24.71875zm-152-24c0-13.253906 10.746094-24 24-24s24 10.746094 24 24-10.746094 24-24 24-24-10.746094-24-24zm0 0" fill="#ffb531"/><path d="m336 200c-39.765625 0-72-32.234375-72-72s32.234375-72 72-72 72 32.234375 72 72c-.042969 39.746094-32.253906 71.957031-72 72zm0-128c-30.929688 0-56 25.070312-56 56s25.070312 56 56 56 56-25.070312 56-56c-.035156-30.914062-25.085938-55.964844-56-56zm0 0" fill="#f7a116"/></svg>